HIERARCHY
ROOT mixamorig:Hips
{
	OFFSET 0.000000 201.639420 0.000000
	CHANNELS 6 Xposition Yposition Zposition Xrotation Yrotation Zrotation
	JOINT mixamorig:Spine
	{
		OFFSET 0.006200 19.524994 -2.481800
		CHANNELS 3 Xrotation Yrotation Zrotation
		JOINT mixamorig:Spine1
		{
			OFFSET -0.000900 22.835007 -2.825400
			CHANNELS 3 Xrotation Yrotation Zrotation
			JOINT mixamorig:Spine2
			{
				OFFSET -0.020600 26.552490 -3.193300
				CHANNELS 3 Xrotation Yrotation Zrotation
				JOINT mixamorig:Neck
				{
					OFFSET -0.060000 30.701813 1.352200
					CHANNELS 3 Xrotation Yrotation Zrotation
					JOINT mixamorig:Head
					{
						OFFSET -0.087200 22.547607 3.670900
						CHANNELS 3 Xrotation Yrotation Zrotation
						JOINT mixamorig:HeadTop_End
						{
							OFFSET -0.830600 40.355194 7.893500
							CHANNELS 3 Xrotation Yrotation Zrotation
							End Site
							{
								OFFSET 0.000000 30.592346 0.000000
							}
						}
						JOINT mixamorig:RightEye
						{
							OFFSET -6.302100 18.118591 16.197100
							CHANNELS 3 Xrotation Yrotation Zrotation
							End Site
							{
								OFFSET 0.000000 30.592346 0.000000
							}
						}
						JOINT mixamorig:LeftEye
						{
							OFFSET 6.741500 18.382690 16.401899
							CHANNELS 3 Xrotation Yrotation Zrotation
							End Site
							{
								OFFSET 0.000000 30.592346 0.000000
							}
						}
					}
				}
				JOINT mixamorig:LeftShoulder
				{
					OFFSET 11.924900 18.230499 1.425400
					CHANNELS 3 Xrotation Yrotation Zrotation
					JOINT mixamorig:LeftArm
					{
						OFFSET 25.435989 -0.697632 -5.229300
						CHANNELS 3 Xrotation Yrotation Zrotation
						JOINT mixamorig:LeftForeArm
						{
							OFFSET 54.684776 0.000000 0.000000
							CHANNELS 3 Xrotation Yrotation Zrotation
							JOINT mixamorig:LeftHand
							{
								OFFSET 55.098175 0.000000 0.000000
								CHANNELS 3 Xrotation Yrotation Zrotation
								JOINT mixamorig:LeftHandMiddle1
								{
									OFFSET 23.369751 0.000000 0.000000
									CHANNELS 3 Xrotation Yrotation Zrotation
									JOINT mixamorig:LeftHandMiddle2
									{
										OFFSET 6.378677 0.000000 0.000000
										CHANNELS 3 Xrotation Yrotation Zrotation
										JOINT mixamorig:LeftHandMiddle3
										{
											OFFSET 6.148331 0.000000 0.000000
											CHANNELS 3 Xrotation Yrotation Zrotation
											JOINT mixamorig:LeftHandMiddle4
											{
												OFFSET 6.582504 0.000000 0.000000
												CHANNELS 3 Xrotation Yrotation Zrotation
												End Site
												{
													OFFSET -1.168900 6.395691 1.028606
												}
											}
										}
									}
								}
								JOINT mixamorig:LeftHandThumb1
								{
									OFFSET 7.235672 -3.848206 5.434273
									CHANNELS 3 Xrotation Yrotation Zrotation
									JOINT mixamorig:LeftHandThumb2
									{
										OFFSET 6.568451 -3.792297 3.792300
										CHANNELS 3 Xrotation Yrotation Zrotation
										JOINT mixamorig:LeftHandThumb3
										{
											OFFSET 6.063080 -3.500519 3.500518
											CHANNELS 3 Xrotation Yrotation Zrotation
											JOINT mixamorig:LeftHandThumb4
											{
												OFFSET 4.793182 -2.767334 2.767349
												CHANNELS 3 Xrotation Yrotation Zrotation
												End Site
												{
													OFFSET 0.101639 6.054260 1.275483
												}
											}
										}
									}
								}
								JOINT mixamorig:LeftHandIndex1
								{
									OFFSET 23.101074 -0.309540 4.992809
									CHANNELS 3 Xrotation Yrotation Zrotation
									JOINT mixamorig:LeftHandIndex2
									{
										OFFSET 6.226883 0.000000 0.000000
										CHANNELS 3 Xrotation Yrotation Zrotation
										JOINT mixamorig:LeftHandIndex3
										{
											OFFSET 6.094330 0.000000 0.000000
											CHANNELS 3 Xrotation Yrotation Zrotation
											JOINT mixamorig:LeftHandIndex4
											{
												OFFSET 5.482605 0.000000 0.000000
												CHANNELS 3 Xrotation Yrotation Zrotation
												End Site
												{
													OFFSET -1.427902 5.233032 0.797164
												}
											}
										}
									}
								}
								JOINT mixamorig:LeftHandRing1
								{
									OFFSET 22.299240 0.021149 -3.964172
									CHANNELS 3 Xrotation Yrotation Zrotation
									JOINT mixamorig:LeftHandRing2
									{
										OFFSET 6.321869 0.000000 0.000000
										CHANNELS 3 Xrotation Yrotation Zrotation
										JOINT mixamorig:LeftHandRing3
										{
											OFFSET 5.899796 0.000000 0.000000
											CHANNELS 3 Xrotation Yrotation Zrotation
											JOINT mixamorig:LeftHandRing4
											{
												OFFSET 6.517899 0.000000 0.000000
												CHANNELS 3 Xrotation Yrotation Zrotation
												End Site
												{
													OFFSET -1.637299 6.232208 0.980890
												}
											}
										}
									}
								}
								JOINT mixamorig:LeftHandPinky1
								{
									OFFSET 20.463791 -0.302338 -8.562233
									CHANNELS 3 Xrotation Yrotation Zrotation
									JOINT mixamorig:LeftHandPinky2
									{
										OFFSET 6.908646 0.000000 0.000000
										CHANNELS 3 Xrotation Yrotation Zrotation
										JOINT mixamorig:LeftHandPinky3
										{
											OFFSET 4.622849 0.000000 0.000000
											CHANNELS 3 Xrotation Yrotation Zrotation
											JOINT mixamorig:LeftHandPinky4
											{
												OFFSET 5.216080 0.000000 0.000000
												CHANNELS 3 Xrotation Yrotation Zrotation
												End Site
												{
													OFFSET -0.606308 5.116241 0.814926
												}
											}
										}
									}
								}
							}
						}
					}
				}
				JOINT mixamorig:RightShoulder
				{
					OFFSET -12.001300 18.284088 1.348900
					CHANNELS 3 Xrotation Yrotation Zrotation
					JOINT mixamorig:RightArm
					{
						OFFSET -25.308500 -0.751312 -5.164599
						CHANNELS 3 Xrotation Yrotation Zrotation
						JOINT mixamorig:RightForeArm
						{
							OFFSET -54.684429 0.000000 0.000000
							CHANNELS 3 Xrotation Yrotation Zrotation
							JOINT mixamorig:RightHand
							{
								OFFSET -55.150291 0.000000 0.000000
								CHANNELS 3 Xrotation Yrotation Zrotation
								JOINT mixamorig:RightHandMiddle1
								{
									OFFSET -23.317566 0.000000 0.000000
									CHANNELS 3 Xrotation Yrotation Zrotation
									JOINT mixamorig:RightHandMiddle2
									{
										OFFSET -6.378403 0.000000 0.000000
										CHANNELS 3 Xrotation Yrotation Zrotation
										JOINT mixamorig:RightHandMiddle3
										{
											OFFSET -6.148193 0.000000 0.000000
											CHANNELS 3 Xrotation Yrotation Zrotation
											JOINT mixamorig:RightHandMiddle4
											{
												OFFSET -6.583389 0.000000 0.000000
												CHANNELS 3 Xrotation Yrotation Zrotation
												End Site
												{
													OFFSET 1.171692 6.395905 1.029786
												}
											}
										}
									}
								}
								JOINT mixamorig:RightHandThumb1
								{
									OFFSET -7.190521 -3.860474 5.435846
									CHANNELS 3 Xrotation Yrotation Zrotation
									JOINT mixamorig:RightHandThumb2
									{
										OFFSET -6.567429 -3.791718 3.791708
										CHANNELS 3 Xrotation Yrotation Zrotation
										JOINT mixamorig:RightHandThumb3
										{
											OFFSET -6.062469 -3.500153 3.500166
											CHANNELS 3 Xrotation Yrotation Zrotation
											JOINT mixamorig:RightHandThumb4
											{
												OFFSET -4.792618 -2.767029 2.767022
												CHANNELS 3 Xrotation Yrotation Zrotation
												End Site
												{
													OFFSET -0.100327 6.053253 1.276754
												}
											}
										}
									}
								}
								JOINT mixamorig:RightHandIndex1
								{
									OFFSET -23.048981 -0.310791 4.992554
									CHANNELS 3 Xrotation Yrotation Zrotation
									JOINT mixamorig:RightHandIndex2
									{
										OFFSET -6.227539 0.000000 0.000000
										CHANNELS 3 Xrotation Yrotation Zrotation
										JOINT mixamorig:RightHandIndex3
										{
											OFFSET -6.095047 0.000000 0.000000
											CHANNELS 3 Xrotation Yrotation Zrotation
											JOINT mixamorig:RightHandIndex4
											{
												OFFSET -5.484772 0.000000 0.000000
												CHANNELS 3 Xrotation Yrotation Zrotation
												End Site
												{
													OFFSET 1.420593 5.237305 0.797056
												}
											}
										}
									}
								}
								JOINT mixamorig:RightHandRing1
								{
									OFFSET -22.246323 0.020569 -3.963762
									CHANNELS 3 Xrotation Yrotation Zrotation
									JOINT mixamorig:RightHandRing2
									{
										OFFSET -6.322128 0.000000 0.000000
										CHANNELS 3 Xrotation Yrotation Zrotation
										JOINT mixamorig:RightHandRing3
										{
											OFFSET -5.900024 0.000000 0.000000
											CHANNELS 3 Xrotation Yrotation Zrotation
											JOINT mixamorig:RightHandRing4
											{
												OFFSET -6.518356 0.000000 0.000000
												CHANNELS 3 Xrotation Yrotation Zrotation
												End Site
												{
													OFFSET 1.636398 6.232697 0.982186
												}
											}
										}
									}
								}
								JOINT mixamorig:RightHandPinky1
								{
									OFFSET -20.411011 -0.303314 -8.561701
									CHANNELS 3 Xrotation Yrotation Zrotation
									JOINT mixamorig:RightHandPinky2
									{
										OFFSET -6.907349 0.000000 0.000000
										CHANNELS 3 Xrotation Yrotation Zrotation
										JOINT mixamorig:RightHandPinky3
										{
											OFFSET -4.623840 0.000000 0.000000
											CHANNELS 3 Xrotation Yrotation Zrotation
											JOINT mixamorig:RightHandPinky4
											{
												OFFSET -5.218353 0.000000 0.000000
												CHANNELS 3 Xrotation Yrotation Zrotation
												End Site
												{
													OFFSET 0.602097 5.118835 0.816273
												}
											}
										}
									}
								}
							}
						}
					}
				}
			}
		}
	}
	JOINT mixamorig:LeftUpLeg
	{
		OFFSET 18.168400 -13.561905 -0.039000
		CHANNELS 3 Xrotation Yrotation Zrotation
		JOINT mixamorig:LeftLeg
		{
			OFFSET 0.577358 -80.825211 -3.695000
			CHANNELS 3 Xrotation Yrotation Zrotation
			JOINT mixamorig:LeftFoot
			{
				OFFSET -0.577356 -83.370262 -6.520700
				CHANNELS 3 Xrotation Yrotation Zrotation
				JOINT mixamorig:LeftToeBase
				{
					OFFSET 0.750401 -20.798306 25.135401
					CHANNELS 3 Xrotation Yrotation Zrotation
					JOINT mixamorig:LeftToe_End
					{
						OFFSET -0.000500 0.001200 19.917799
						CHANNELS 3 Xrotation Yrotation Zrotation
						End Site
						{
							OFFSET 0.000000 19.917805 0.000000
						}
					}
				}
			}
		}
	}
	JOINT mixamorig:RightUpLeg
	{
		OFFSET -18.162500 -13.585098 -0.041000
		CHANNELS 3 Xrotation Yrotation Zrotation
		JOINT mixamorig:RightLeg
		{
			OFFSET -0.595024 -80.945297 -3.631900
			CHANNELS 3 Xrotation Yrotation Zrotation
			JOINT mixamorig:RightFoot
			{
				OFFSET 0.595024 -83.218193 -6.561200
				CHANNELS 3 Xrotation Yrotation Zrotation
				JOINT mixamorig:RightToeBase
				{
					OFFSET -0.753601 -20.807106 25.115000
					CHANNELS 3 Xrotation Yrotation Zrotation
					JOINT mixamorig:RightToe_End
					{
						OFFSET 0.000299 0.001700 19.918200
						CHANNELS 3 Xrotation Yrotation Zrotation
						End Site
						{
							OFFSET 0.000000 19.918203 0.000000
						}
					}
				}
			}
		}
	}
}
MOTION
Frames: 5
Frame Time: 0.033333
-0.715897 200.418396 218.504684 3.549475 -1.370113 24.156412 16.367870 -2.164729 -3.926804 32.656958 -4.691229 -6.402359 32.656941 -4.691225 -6.402361 -53.858173 1.263666 -7.694658 -27.636182 -15.540190 10.949107 0.000000 0.000000 -0.000001 0.000000 0.000000 -0.000001 0.000000 0.000000 -0.000001 -33.261204 -30.286223 5.499901 -64.908107 -11.759199 -54.444865 -5.139680 -58.541101 -4.387599 67.771937 16.188737 40.436226 0.508023 9.199833 6.502449 -0.599054 -1.039005 -13.242623 0.000000 -0.000001 0.000007 -0.000000 0.000001 -0.000004 -3.222924 5.402005 -10.604492 1.521681 9.151656 -1.808042 -0.000002 0.000009 0.000007 0.000000 0.000002 0.000002 -7.748401 2.192900 6.999943 0.546706 0.949698 -9.493487 -0.000002 0.000001 -0.000006 -0.000002 -0.000000 -0.000002 1.645368 5.256698 1.499440 -0.029452 0.685348 -4.738484 0.000003 -0.000003 -0.000005 -0.000000 -0.000001 -0.000001 6.956539 20.778892 -1.539526 0.940568 -3.058503 -0.000050 0.000000 0.000001 -0.000005 0.000000 -0.000001 0.000004 -60.504288 24.941914 6.695603 -38.791906 -20.855074 26.615601 2.465064 62.171722 -2.180112 39.968672 -16.760615 -67.049010 -0.177664 -11.173246 -2.720625 -3.201403 3.513258 80.597182 0.000005 0.000004 0.000012 0.000002 -0.000001 0.000001 -11.856250 -5.937869 5.708352 7.926516 -17.971172 4.311710 0.000003 -0.000004 -0.000006 -0.000002 0.000000 -0.000001 -5.622993 -0.862229 -8.566648 1.008515 -2.175808 44.157839 -0.000004 0.000000 0.000003 -0.000001 -0.000004 -0.000001 0.622919 -11.714510 7.570032 -1.552446 2.045126 56.079012 0.000001 0.000007 0.000001 -0.000001 0.000001 0.000000 1.794857 0.029611 7.632109 -0.208757 1.705171 16.668138 -0.000005 -0.000001 -0.000002 0.000001 -0.000002 -0.000005 -61.088604 22.321943 -17.582831 95.319463 -5.956836 -2.784381 -59.765952 21.287362 9.101476 -8.077593 3.594639 -2.097644 -0.000001 0.000001 -0.000001 -9.993321 3.198259 -31.151321 55.461242 -2.996658 1.690134 -45.978235 -5.783426 9.371522 -25.321087 -10.053840 -2.754046 0.000003 -0.000001 -0.000000 
-0.237869 203.153931 222.191925 4.637307 -1.851600 23.039753 16.417161 -1.918713 -3.850231 32.760087 -4.227426 -6.353520 32.760101 -4.227428 -6.353522 -53.894345 1.216609 -8.257172 -27.906369 -16.008304 10.898932 0.000000 -0.000000 0.000001 0.000000 -0.000000 0.000001 0.000000 -0.000000 0.000001 -33.503943 -30.919177 6.058620 -62.295423 -7.693811 -55.438234 -5.130589 -64.167018 -4.620414 70.171683 16.459163 39.749666 0.945773 9.707894 4.320950 -0.771297 -1.230082 -13.664378 0.000002 -0.000001 0.000007 0.000001 0.000000 0.000003 -3.631544 5.059102 -10.143477 1.254593 8.213464 -1.573741 -0.000002 0.000013 0.000009 0.000001 -0.000001 -0.000002 -8.007754 2.728708 4.283156 0.570389 1.025948 -10.632783 -0.000001 0.000001 -0.000005 -0.000000 0.000000 -0.000000 1.594985 5.111856 0.424501 -0.058017 0.490580 -6.807142 0.000001 -0.000002 -0.000011 0.000000 -0.000001 -0.000002 6.618489 20.573974 -0.321102 0.924358 -3.150706 -0.000023 0.000000 -0.000000 -0.000004 -0.000001 -0.000001 -0.000000 -60.176412 25.466046 7.442292 -37.297450 -24.596182 25.921563 3.484993 67.420504 -3.218258 38.786520 -16.213834 -63.862699 -0.159516 -11.330897 -2.312519 -3.296880 3.527788 82.057660 0.000004 0.000008 0.000011 0.000000 -0.000000 -0.000002 -12.249650 -5.549445 5.599766 7.624727 -17.394499 4.179181 0.000004 0.000003 -0.000008 -0.000003 0.000002 -0.000000 -5.506065 -0.682027 -9.352809 1.082514 -2.234698 46.087968 0.000001 -0.000000 0.000001 0.000001 -0.000002 0.000001 0.645771 -11.256039 8.636039 -1.650346 2.113207 57.896611 0.000001 0.000002 0.000000 -0.000003 -0.000001 0.000001 1.484598 0.800371 9.037993 -0.232380 1.819886 17.696131 -0.000005 -0.000002 0.000005 -0.000001 -0.000003 0.000001 -59.507306 21.146155 -17.407219 93.827982 -5.766428 -2.764412 -60.357466 20.985785 9.218686 -8.451650 3.605644 -2.071708 0.000002 -0.000000 0.000000 -11.353594 2.074810 -30.625158 54.405387 -2.760275 1.685402 -41.693660 -4.170184 9.547618 -23.955893 -8.372320 -2.102010 -0.000001 0.000001 0.000000 
0.275139 206.837646 225.604477 5.699301 -2.067279 21.155413 16.668028 -1.608451 -3.467471 33.278024 -3.567351 -5.748060 33.278037 -3.567348 -5.748058 -54.386426 1.103380 -8.426137 -28.315883 -16.125207 10.386395 0.000000 -0.000000 0.000001 0.000000 -0.000000 0.000001 0.000000 -0.000000 0.000001 -33.767803 -30.936942 7.264477 -60.780323 -4.244648 -57.266174 -5.353436 -68.219035 -4.973452 71.992018 16.603159 40.157715 1.441492 9.685828 2.672947 -0.967391 -1.448857 -14.706535 0.000001 0.000001 0.000009 0.000001 0.000001 0.000001 -3.734792 4.935602 -8.972991 1.531817 9.186678 -1.816895 -0.000001 0.000011 0.000008 0.000000 0.000001 0.000002 -8.155259 2.893431 2.435727 0.617639 1.164289 -12.718098 -0.000001 0.000002 -0.000011 -0.000001 -0.000000 0.000003 1.594173 5.023111 0.638296 -0.111059 0.214028 -9.765940 0.000001 -0.000001 -0.000009 0.000001 0.000000 -0.000002 6.696467 20.308565 -0.791411 0.901547 -3.171426 0.000102 -0.000002 -0.000001 -0.000009 0.000000 -0.000000 0.000001 -59.981847 25.723688 10.241838 -38.770148 -25.847625 22.791660 5.067607 72.125930 -4.823967 38.441367 -15.417026 -59.411185 -0.138003 -11.204022 -2.083246 -3.320211 3.530956 82.413773 0.000004 0.000007 0.000011 0.000004 -0.000003 -0.000001 -12.527108 -5.151949 4.880033 7.477403 -17.110343 4.114765 0.000006 0.000005 -0.000007 -0.000001 -0.000001 0.000003 -5.474761 -0.723423 -9.704013 1.101766 -2.249367 46.581282 0.000000 -0.000001 -0.000002 -0.000001 0.000002 0.000002 0.654955 -11.185150 8.889045 -1.672275 2.127824 58.298690 -0.000000 0.000001 -0.000003 -0.000002 0.000002 0.000000 1.298099 1.072294 10.047289 -0.242983 1.868255 18.130715 -0.000006 -0.000001 0.000005 -0.000002 0.000000 0.000001 -57.647466 19.520225 -16.452971 91.405580 -5.508862 -2.733709 -60.423569 19.999909 8.766666 -8.639646 3.611114 -2.058645 0.000001 -0.000000 -0.000001 -12.740433 1.944166 -28.409429 53.609250 -2.426735 1.693822 -35.462076 -3.786720 8.591177 -20.844028 -6.478251 -1.282666 -0.000000 -0.000002 -0.000000 
0.716736 210.799759 228.728714 6.486651 -1.982463 18.841772 17.057059 -1.269904 -2.875775 34.076490 -2.802153 -4.754773 34.076480 -2.802153 -4.754772 -55.037886 0.863484 -8.233977 -28.575196 -15.826727 10.041819 0.000000 -0.000000 -0.000001 0.000000 -0.000000 -0.000001 0.000000 -0.000000 -0.000001 -34.038384 -30.563785 9.173196 -59.564147 -1.075817 -59.653411 -5.775593 -71.022978 -5.463884 73.154926 16.687298 41.149055 1.885685 10.105880 2.110596 -1.187799 -1.681232 -16.303974 0.000001 -0.000003 0.000011 0.000001 -0.000000 0.000000 -3.585037 5.025622 -7.733424 2.063937 10.962501 -2.275608 0.000000 0.000012 0.000006 0.000001 0.000001 0.000002 -8.209266 3.097544 1.759947 0.674814 1.312934 -14.990126 -0.000002 0.000002 -0.000006 -0.000001 -0.000000 0.000003 1.591090 4.636364 0.696600 -0.208507 -0.165533 -13.884321 0.000002 -0.000002 -0.000005 -0.000002 -0.000000 0.000001 6.747577 20.064070 -1.144695 0.868946 -3.168847 -0.000014 0.000000 0.000000 -0.000003 0.000000 0.000001 0.000001 -59.828680 25.857855 14.143354 -41.864333 -24.959560 18.185350 7.127166 76.032990 -6.918331 38.346741 -14.349242 -54.109056 -0.122757 -11.143868 -1.890856 -3.332374 3.532548 82.599301 0.000005 0.000004 0.000012 0.000003 -0.000002 0.000002 -12.594900 -5.048206 4.684876 7.503489 -17.160623 4.126043 0.000004 -0.000000 -0.000006 -0.000005 -0.000002 -0.000002 -5.490713 -0.716811 -9.546648 1.104329 -2.251296 46.647894 -0.000001 0.000001 -0.000000 0.000002 0.000004 0.000004 0.665351 -11.154570 9.080833 -1.674349 2.129197 58.336304 0.000003 0.000002 0.000001 -0.000001 0.000001 -0.000003 1.156414 1.145939 10.990086 -0.241535 1.861764 18.072322 -0.000006 0.000002 0.000004 0.000000 0.000000 0.000001 -55.589004 17.671929 -14.983085 88.617757 -5.203024 -2.693633 -60.059165 18.521209 7.755109 -8.742545 3.614079 -2.051494 -0.000001 -0.000002 0.000000 -14.792072 2.014618 -25.523283 54.252476 -2.027643 1.740130 -29.772887 -3.622795 7.296317 -14.594385 -4.505801 -0.409592 -0.000000 -0.000002 -0.000000 
0.806194 214.089493 231.726532 6.832595 -1.588835 17.006070 17.370780 -1.060545 -2.378686 34.716130 -2.313455 -3.921224 34.716117 -2.313454 -3.921228 -55.173906 0.607313 -7.931282 -28.438369 -15.191965 10.456034 -0.000001 -0.000001 -0.000000 -0.000001 -0.000001 -0.000000 -0.000001 -0.000001 -0.000000 -34.209901 -30.554885 11.153581 -57.384968 1.971493 -61.596046 -6.284033 -73.267671 -6.020195 73.958251 16.590799 42.435019 2.311486 10.337976 2.033031 -1.451595 -1.931747 -19.038770 0.000001 -0.000001 0.000010 -0.000000 0.000000 -0.000003 -3.479648 5.087392 -6.630731 2.526192 12.417199 -2.667017 -0.000002 0.000013 0.000010 0.000001 -0.000002 0.000000 -8.224302 3.362956 1.583912 0.758536 1.503987 -17.966939 -0.000001 0.000002 -0.000005 -0.000000 -0.000000 0.000001 1.574864 4.410391 0.531680 -0.353540 -0.591064 -18.610845 0.000000 -0.000002 -0.000009 -0.000002 -0.000001 0.000002 6.855382 19.680809 -1.743144 0.829473 -3.154691 -0.000046 -0.000001 0.000000 -0.000002 0.000000 -0.000002 -0.000003 -59.497252 26.545906 16.779307 -43.484208 -25.214279 14.731191 9.216617 79.153375 -9.054464 37.596226 -13.151908 -49.599942 -0.107815 -11.086270 -1.695938 -3.344011 3.534044 82.776920 0.000004 0.000009 0.000009 0.000000 0.000002 -0.000001 -12.650707 -4.960941 4.518678 7.540350 -17.231589 4.142033 0.000004 0.000003 -0.000009 -0.000001 -0.000004 0.000000 -5.510237 -0.707346 -9.353061 1.105910 -2.252476 46.688076 0.000000 0.000003 0.000001 0.000001 -0.000001 0.000000 0.675724 -11.124027 9.274272 -1.675191 2.129758 58.351870 0.000000 0.000004 -0.000002 -0.000001 0.000002 0.000000 1.010723 1.210144 11.978167 -0.239294 1.851641 17.981369 -0.000006 -0.000000 0.000004 -0.000001 0.000002 0.000000 -53.387535 15.947028 -13.939518 86.128808 -4.923358 -2.653671 -59.728898 17.160936 6.628954 -8.839921 3.616877 -2.044707 -0.000001 0.000000 0.000000 -19.040477 -0.113315 -24.717061 58.475367 -1.574980 1.865106 -29.226776 -1.753173 6.397829 -7.551143 -2.648040 0.079711 -0.000000 0.000001 -0.000000 
